<svg width="47" height="44" viewBox="0 0 47 44" fill="none" xmlns="http://www.w3.org/2000/svg">
<path d="M18.5203 2.85944L6.02035 10.0372C2.91488 11.8205 1 15.1282 1 18.7092V35.6543C1 39.7803 4.34475 43.125 8.4707 43.125H12.2749C14.2999 43.125 15.9414 41.4835 15.9414 39.4585V36.6709C15.9414 36.1855 15.5479 35.792 15.0625 35.792C14.5771 35.792 14.1836 35.3985 14.1836 34.9131V34.5698C14.1836 33.8949 14.7308 33.3477 15.4058 33.3477H31.77C32.445 33.3477 32.9922 33.8949 32.9922 34.5698V34.9131C32.9922 35.3985 32.5987 35.792 32.1133 35.792C31.6279 35.792 31.2344 36.1855 31.2344 36.6709V39.4585C31.2344 41.4835 32.8759 43.125 34.9009 43.125H38.6172C42.6946 43.125 46 39.8196 46 35.7422V18.7092C46 15.1282 44.0851 11.8205 40.9797 10.0372L28.4797 2.85944C25.396 1.08873 21.604 1.08873 18.5203 2.85944Z" fill="#F0F5E6" stroke="#004339"/>
<path d="M25.3951 21.1342C24.4576 17.8169 25.1138 11.0425 35.2388 10.4838C36.0592 13.8594 35.2388 20.7152 25.3951 21.1342Z" fill="#9CC190"/>
<path d="M21.5279 27.4195C21.9966 24.2186 20.7193 17.8169 11.8599 17.8169C11.0396 21.2506 11.8247 27.9782 21.5279 27.4195Z" fill="#9CC190"/>
<path d="M21.5279 15.5471C22.0552 11.997 20.8599 4.96665 11.8599 5.246C10.9224 8.33051 11.5435 14.7091 21.5279 15.5471Z" fill="#9CC190"/>
<path d="M41.254 33.8796C41.7813 30.3295 40.586 23.2991 31.586 23.5784C30.6485 26.663 31.2696 33.0415 41.254 33.8796Z" fill="#9CC190"/>
<path d="M25.3951 33.8796V21.1342M25.3951 21.1342C24.4576 17.8169 25.1138 11.0425 35.2388 10.4838C36.0592 13.8594 35.2388 20.7152 25.3951 21.1342ZM21.5279 33.8796V27.4195M21.5279 27.4195C21.9966 24.2186 20.7193 17.8169 11.8599 17.8169C11.0396 21.2506 11.8247 27.9782 21.5279 27.4195ZM21.5279 15.5471C22.0552 11.997 20.8599 4.96665 11.8599 5.246C10.9224 8.33051 11.5435 14.7091 21.5279 15.5471ZM41.254 33.8796C41.7813 30.3295 40.586 23.2991 31.586 23.5784C30.6485 26.663 31.2696 33.0415 41.254 33.8796Z" stroke="#004339"/>
</svg>
