<svg width="157" height="92" viewBox="0 0 157 92" fill="none" xmlns="http://www.w3.org/2000/svg">
<path d="M47.457 39.719L47.212 33.741L66.665 13.7H72.251L57.208 29.576L54.464 32.614L47.457 39.719ZM43.145 48V13.7H48.045V48H43.145ZM67.449 48L53.386 31.634L56.669 28.008L73.182 48H67.449ZM87.6523 48.294C85.039 48.294 82.7196 47.7223 80.6943 46.579C78.669 45.4357 77.0683 43.8677 75.8923 41.875C74.7163 39.8497 74.1283 37.563 74.1283 35.015C74.1283 32.4343 74.7163 30.1477 75.8923 28.155C77.0683 26.1623 78.669 24.6107 80.6943 23.5C82.7196 22.3567 85.039 21.785 87.6523 21.785C90.233 21.785 92.536 22.3567 94.5613 23.5C96.6193 24.6107 98.22 26.1623 99.3633 28.155C100.539 30.115 101.127 32.4017 101.127 35.015C101.127 37.5957 100.539 39.8823 99.3633 41.875C98.22 43.8677 96.6193 45.4357 94.5613 46.579C92.536 47.7223 90.233 48.294 87.6523 48.294ZM87.6523 44.178C89.3183 44.178 90.8046 43.8023 92.1113 43.051C93.4506 42.2997 94.496 41.238 95.2473 39.866C95.9986 38.4613 96.3743 36.8443 96.3743 35.015C96.3743 33.153 95.9986 31.5523 95.2473 30.213C94.496 28.841 93.4506 27.7793 92.1113 27.028C90.8046 26.2767 89.3183 25.901 87.6523 25.901C85.9863 25.901 84.5 26.2767 83.1933 27.028C81.8866 27.7793 80.8413 28.841 80.0573 30.213C79.2733 31.5523 78.8813 33.153 78.8813 35.015C78.8813 36.8443 79.2733 38.4613 80.0573 39.866C80.8413 41.238 81.8866 42.2997 83.1933 43.051C84.5 43.8023 85.9863 44.178 87.6523 44.178ZM116.551 48.294C113.937 48.294 111.912 47.5917 110.475 46.187C109.037 44.7823 108.319 42.7733 108.319 40.16V16.346H113.023V39.964C113.023 41.3687 113.366 42.4467 114.052 43.198C114.77 43.9493 115.783 44.325 117.09 44.325C118.56 44.325 119.785 43.9167 120.765 43.1L122.235 46.481C121.516 47.1017 120.65 47.559 119.638 47.853C118.658 48.147 117.629 48.294 116.551 48.294ZM103.909 25.901V22.03H120.471V25.901H103.909Z" fill="#234A0F"/>
<path d="M88.0839 34.9179C87.5339 33.0747 87.9189 29.3104 93.8589 29C94.3402 30.8756 93.8589 34.6851 88.0839 34.9179Z" fill="#234A0F"/>
<path d="M85.8152 38.4104C86.0902 36.6318 85.3408 33.0747 80.1433 33.0747C79.6621 34.9826 80.1227 38.7209 85.8152 38.4104Z" fill="#234A0F"/>
<line x1="88.4" y1="33" x2="88.4" y2="46" stroke="#234A0F" stroke-width="0.8"/>
<line x1="85.4" y1="38" x2="85.4" y2="47" stroke="#234A0F" stroke-width="0.8"/>
<path d="M146.751 56.836C147.397 56.836 147.939 57.0707 148.379 57.54C148.849 57.98 149.083 58.5373 149.083 59.212C149.083 59.5933 148.995 60.004 148.819 60.444C148.35 61.5293 147.69 62.4387 146.839 63.172C145.989 63.9053 145.05 64.272 144.023 64.272C143.202 64.272 142.498 63.9786 141.911 63.392C141.354 62.8053 141.075 62.0133 141.075 61.016C141.075 60.4586 141.105 59.8573 141.163 59.212C141.222 58.7427 141.251 58.42 141.251 58.244C141.251 58.0093 141.193 57.8333 141.075 57.716C140.987 57.5987 140.87 57.54 140.723 57.54C140.313 57.54 139.755 58.0387 139.051 59.036C138.347 60.004 137.643 61.2947 136.939 62.908C136.235 64.5213 135.663 66.2227 135.223 68.012C134.901 69.42 134.534 70.3587 134.123 70.828C133.713 71.2973 133.038 71.532 132.099 71.532C130.985 71.532 130.193 70.9453 129.723 69.772C129.283 68.5987 129.063 66.7213 129.063 64.14C129.063 60.3267 129.606 56.704 130.691 53.272C130.955 52.4213 131.381 51.8053 131.967 51.424C132.583 51.0133 133.434 50.808 134.519 50.808C135.106 50.808 135.517 50.8813 135.751 51.028C135.986 51.1747 136.103 51.4533 136.103 51.864C136.103 52.3333 135.883 53.3893 135.443 55.032C135.15 56.2053 134.915 57.232 134.739 58.112C134.563 58.992 134.417 60.0773 134.299 61.368C135.267 58.8453 136.353 56.792 137.555 55.208C138.758 53.624 139.931 52.4947 141.075 51.82C142.219 51.1453 143.261 50.808 144.199 50.808C145.05 50.808 145.695 51.0573 146.135 51.556C146.605 52.0253 146.839 52.7293 146.839 53.668C146.839 54.2253 146.678 55.2813 146.355 56.836H146.751Z" fill="#457A14"/>
<path d="M131.326 61.5C131.707 61.5 132 61.676 132.206 62.028C132.44 62.38 132.558 62.864 132.558 63.48C132.558 64.6533 132.279 65.5627 131.722 66.208C130.636 67.528 129.096 68.7453 127.102 69.86C125.136 70.9747 123.024 71.532 120.766 71.532C117.686 71.532 115.295 70.696 113.594 69.024C111.892 67.352 111.042 65.064 111.042 62.16C111.042 60.136 111.467 58.2587 112.318 56.528C113.168 54.768 114.342 53.3747 115.838 52.348C117.363 51.3213 119.079 50.808 120.986 50.808C122.687 50.808 124.051 51.3213 125.078 52.348C126.104 53.3453 126.618 54.7093 126.618 56.44C126.618 58.464 125.884 60.2093 124.418 61.676C122.98 63.1133 120.531 64.2573 117.07 65.108C117.803 66.4573 119.196 67.132 121.25 67.132C122.57 67.132 124.066 66.6773 125.738 65.768C127.439 64.8293 128.906 63.612 130.138 62.116C130.49 61.7053 130.886 61.5 131.326 61.5ZM120.238 55.12C119.152 55.12 118.228 55.7507 117.466 57.012C116.732 58.2733 116.366 59.7987 116.366 61.588V61.676C118.096 61.2653 119.46 60.6493 120.458 59.828C121.455 59.0067 121.954 58.0533 121.954 56.968C121.954 56.4106 121.792 55.9706 121.47 55.648C121.176 55.296 120.766 55.12 120.238 55.12Z" fill="#457A14"/>
<path d="M92.9977 71.532C91.883 71.532 91.091 70.9453 90.6217 69.772C90.1817 68.5987 89.9617 66.7213 89.9617 64.14C89.9617 60.3267 90.5043 56.704 91.5897 53.272C91.8537 52.4213 92.279 51.8053 92.8657 51.424C93.4817 51.0133 94.3323 50.808 95.4177 50.808C96.0043 50.808 96.415 50.8813 96.6497 51.028C96.8843 51.1747 97.0017 51.4533 97.0017 51.864C97.0017 52.3333 96.7817 53.3893 96.3417 55.032C96.0483 56.2053 95.8137 57.232 95.6377 58.112C95.4617 58.992 95.315 60.0773 95.1977 61.368C96.1657 58.8453 97.251 56.792 98.4537 55.208C99.6563 53.624 100.83 52.4947 101.974 51.82C103.147 51.1453 104.218 50.808 105.186 50.808C107.092 50.808 108.046 51.7613 108.046 53.668C108.046 54.812 107.723 56.88 107.078 59.872C106.52 62.424 106.242 64.1107 106.242 64.932C106.242 66.1053 106.667 66.692 107.518 66.692C108.104 66.692 108.794 66.34 109.586 65.636C110.407 64.9027 111.492 63.7293 112.842 62.116C113.194 61.7053 113.59 61.5 114.03 61.5C114.411 61.5 114.704 61.676 114.91 62.028C115.144 62.38 115.262 62.864 115.262 63.48C115.262 64.6533 114.983 65.5627 114.426 66.208C113.164 67.7627 111.8 69.0387 110.334 70.036C108.896 71.0333 107.254 71.532 105.406 71.532C103.91 71.532 102.78 71.1067 102.018 70.256C101.255 69.376 100.874 68.1147 100.874 66.472C100.874 65.6507 101.079 64.184 101.49 62.072C101.871 60.224 102.062 58.948 102.062 58.244C102.062 57.7747 101.9 57.54 101.578 57.54C101.196 57.54 100.654 58.0387 99.9497 59.036C99.275 60.004 98.571 61.2947 97.8377 62.908C97.1337 64.5213 96.5617 66.2227 96.1217 68.012C95.799 69.3907 95.4177 70.3293 94.9777 70.828C94.567 71.2973 93.907 71.532 92.9977 71.532Z" fill="#457A14"/>
<path d="M92.2242 61.5C92.6055 61.5 92.8988 61.676 93.1042 62.028C93.3388 62.38 93.4562 62.864 93.4562 63.48C93.4562 64.6533 93.1775 65.5627 92.6202 66.208C91.5349 67.528 89.9948 68.7453 88.0002 69.86C86.0348 70.9747 83.9229 71.532 81.6642 71.532C78.5842 71.532 76.1935 70.696 74.4922 69.024C72.7908 67.352 71.9402 65.064 71.9402 62.16C71.9402 60.136 72.3655 58.2587 73.2162 56.528C74.0668 54.768 75.2402 53.3747 76.7362 52.348C78.2615 51.3213 79.9775 50.808 81.8842 50.808C83.5855 50.808 84.9495 51.3213 85.9762 52.348C87.0028 53.3453 87.5162 54.7093 87.5162 56.44C87.5162 58.464 86.7829 60.2093 85.3162 61.676C83.8789 63.1133 81.4295 64.2573 77.9682 65.108C78.7015 66.4573 80.0949 67.132 82.1482 67.132C83.4682 67.132 84.9642 66.6773 86.6362 65.768C88.3375 64.8293 89.8042 63.612 91.0362 62.116C91.3882 61.7053 91.7842 61.5 92.2242 61.5ZM81.1362 55.12C80.0509 55.12 79.1268 55.7507 78.3642 57.012C77.6308 58.2733 77.2642 59.7987 77.2642 61.588V61.676C78.9948 61.2653 80.3589 60.6493 81.3562 59.828C82.3535 59.0067 82.8522 58.0533 82.8522 56.968C82.8522 56.4106 82.6908 55.9706 82.3682 55.648C82.0748 55.296 81.6642 55.12 81.1362 55.12Z" fill="#457A14"/>
<path d="M74.9507 61.5C75.3321 61.5 75.6254 61.676 75.8307 62.028C76.0654 62.38 76.1828 62.864 76.1828 63.48C76.1828 64.6533 75.9041 65.5627 75.3468 66.208C74.2614 67.528 72.7214 68.7453 70.7267 69.86C68.7614 70.9747 66.6494 71.532 64.3908 71.532C61.3108 71.532 58.9201 70.696 57.2188 69.024C55.5174 67.352 54.6667 65.064 54.6667 62.16C54.6667 60.136 55.0921 58.2587 55.9427 56.528C56.7934 54.768 57.9667 53.3747 59.4627 52.348C60.9881 51.3213 62.7041 50.808 64.6108 50.808C66.3121 50.808 67.6761 51.3213 68.7027 52.348C69.7294 53.3453 70.2427 54.7093 70.2427 56.44C70.2427 58.464 69.5094 60.2093 68.0428 61.676C66.6054 63.1133 64.1561 64.2573 60.6947 65.108C61.4281 66.4573 62.8214 67.132 64.8748 67.132C66.1948 67.132 67.6908 66.6773 69.3628 65.768C71.0641 64.8293 72.5308 63.612 73.7628 62.116C74.1148 61.7053 74.5107 61.5 74.9507 61.5ZM63.8628 55.12C62.7774 55.12 61.8534 55.7507 61.0907 57.012C60.3574 58.2733 59.9907 59.7987 59.9907 61.588V61.676C61.7214 61.2653 63.0854 60.6493 64.0828 59.828C65.0801 59.0067 65.5787 58.0533 65.5787 56.968C65.5787 56.4106 65.4174 55.9706 65.0947 55.648C64.8014 55.296 64.3908 55.12 63.8628 55.12Z" fill="#457A14"/>
<path d="M38.4274 71.532C37.3127 71.532 36.5207 70.9453 36.0514 69.772C35.6114 68.5987 35.3914 66.7213 35.3914 64.14C35.3914 60.3267 35.934 56.704 37.0194 53.272C37.2834 52.4213 37.7087 51.8053 38.2954 51.424C38.9114 51.0133 39.762 50.808 40.8474 50.808C41.434 50.808 41.8447 50.8813 42.0794 51.028C42.314 51.1747 42.4314 51.4533 42.4314 51.864C42.4314 52.3333 42.2114 53.3893 41.7714 55.032C41.478 56.2053 41.2434 57.232 41.0674 58.112C40.8914 58.992 40.7447 60.0773 40.6274 61.368C41.5954 58.8453 42.6807 56.792 43.8834 55.208C45.086 53.624 46.2594 52.4947 47.4034 51.82C48.5767 51.1453 49.6474 50.808 50.6154 50.808C52.522 50.808 53.4754 51.7613 53.4754 53.668C53.4754 54.0493 53.3434 54.9733 53.0794 56.44C52.8447 57.6133 52.7274 58.3467 52.7274 58.64C52.7274 59.6667 53.094 60.18 53.8274 60.18C54.6487 60.18 55.7047 59.5347 56.9954 58.244C57.3767 57.8627 57.7727 57.672 58.1834 57.672C58.5647 57.672 58.858 57.848 59.0634 58.2C59.298 58.5227 59.4154 58.9627 59.4154 59.52C59.4154 60.6053 59.122 61.456 58.5354 62.072C57.714 62.9226 56.746 63.656 55.6314 64.272C54.546 64.8587 53.3874 65.152 52.1554 65.152C50.6007 65.152 49.4127 64.756 48.5914 63.964C47.7994 63.172 47.4034 62.1013 47.4034 60.752C47.4034 60.312 47.4474 59.872 47.5354 59.432C47.594 58.8453 47.6234 58.4493 47.6234 58.244C47.6234 57.7747 47.462 57.54 47.1394 57.54C46.6994 57.54 46.1127 58.0387 45.3794 59.036C44.6754 60.004 43.9714 61.2947 43.2674 62.908C42.5634 64.5213 41.9914 66.2227 41.5514 68.012C41.2287 69.3907 40.8474 70.3293 40.4074 70.828C39.9967 71.2973 39.3367 71.532 38.4274 71.532Z" fill="#457A14"/>
<path d="M37.2479 61.588C37.6293 61.588 37.9226 61.7787 38.1279 62.16C38.3626 62.512 38.4799 62.9667 38.4799 63.524C38.4799 64.1987 38.3772 64.7267 38.1719 65.108C37.9666 65.4893 37.6439 65.8267 37.2039 66.12C35.4733 67.264 32.7159 69.1413 28.9319 71.752C27.7879 77.824 26 74.312 26 74.312C24.1813 77.8027 23.7546 79.312 20.9679 79.312C19.4719 79.312 20.9387 79.7507 20 78.812C19.0613 77.9027 19.7799 78.308 19.7799 76.812C19.7799 75.4333 20.884 76.72 21.5 75.312C22.116 73.904 20.828 74.66 22.5 72.812C24.2013 70.964 20.9679 73.292 24.0479 70.916L24.1799 70.08C21.8626 71.048 19.5893 71.532 17.3599 71.532C14.0746 71.532 11.1853 70.9013 8.69192 69.64C6.19858 68.3493 4.26258 66.5307 2.88392 64.184C1.50525 61.8373 0.815918 59.1093 0.815918 56C0.815918 51.6587 1.63725 47.8307 3.27992 44.516C4.92258 41.172 7.18125 38.5907 10.0559 36.772C12.9599 34.924 16.2013 34 19.7799 34C23.2119 34 25.7786 34.8067 27.4799 36.42C29.2106 38.004 30.0759 40.116 30.0759 42.756C30.0759 44.4867 29.7533 45.88 29.1079 46.936C28.4919 47.9627 27.5973 48.476 26.4239 48.476C25.6319 48.476 24.9866 48.2853 24.4879 47.904C24.0186 47.5227 23.7839 46.9947 23.7839 46.32C23.7839 46.0267 23.8426 45.528 23.9599 44.824C24.1359 44.0027 24.2239 43.3573 24.2239 42.888C24.2239 41.656 23.8426 40.7027 23.0799 40.028C22.3466 39.3533 21.0999 39.016 19.3399 39.016C17.1986 39.016 15.2039 39.632 13.3559 40.864C11.5373 42.096 10.0706 43.944 8.95592 46.408C7.84125 48.8427 7.28392 51.776 7.28392 55.208C7.28392 58.728 8.23725 61.456 10.1439 63.392C12.0799 65.2987 14.8666 66.252 18.5039 66.252C20.5279 66.252 22.6399 65.7973 24.8399 64.888L25.4559 59.52H20.9679C20.1466 59.52 19.5159 59.3293 19.0759 58.948C18.6359 58.5373 18.4159 57.8773 18.4159 56.968C18.4159 56.1467 18.6359 55.5013 19.0759 55.032C19.5159 54.5627 20.1026 54.328 20.8359 54.328H29.0639C29.7093 54.328 30.2373 54.548 30.6479 54.988C31.0879 55.3987 31.2639 56 31.1759 56.792C31.0879 57.7307 30.7946 59.8573 30.2959 63.172L29.8119 66.516C32.1586 64.756 34.2999 63.2307 36.2359 61.94C36.6172 61.7053 36.9546 61.588 37.2479 61.588Z" fill="#457A14"/>
<path d="M156.494 57.6633C154.165 55.1564 148.027 52.3389 142.1 61.1243C144.821 63.5675 151.51 66.2958 156.494 57.6633Z" fill="#457A14"/>
<path d="M28.6157 70.5559C22.8884 70.2262 12.191 73.9442 15.2198 91.4538C21.3486 91.2501 32.608 86.7854 28.6157 70.5559Z" fill="#457A14"/>
</svg>
